<svg width="104" height="24" viewBox="0 0 104 24" fill="none" xmlns="http://www.w3.org/2000/svg">
<g id="Group 462">
<path id="Subtract" fill-rule="evenodd" clip-rule="evenodd" d="M31.129 22.7715C29.7253 22.7715 28.4537 22.5376 27.3144 22.0696C26.1954 21.6017 25.3003 20.8388 24.6289 19.781C23.9779 18.7231 23.6523 17.3193 23.6523 15.5697V7.48302C23.6523 5.73344 23.9779 4.3297 24.6289 3.27181C25.3003 2.21393 26.1954 1.45103 27.3144 0.983117C28.4537 0.515206 29.7253 0.28125 31.129 0.28125C32.5328 0.28125 33.8044 0.515206 34.9437 0.983117C36.083 1.45103 36.9782 2.21393 37.6292 3.27181C38.3006 4.3297 38.6363 5.73344 38.6363 7.48302V15.5697C38.6363 17.3193 38.3006 18.7231 37.6292 19.781C36.9782 20.8388 36.083 21.6017 34.9437 22.0696C33.8044 22.5376 32.5328 22.7715 31.129 22.7715ZM31.129 18.6213C31.9835 18.6213 32.6549 18.3772 33.1432 17.889C33.6315 17.4007 33.8756 16.6276 33.8756 15.5697V7.48302C33.8756 6.42513 33.6315 5.65206 33.1432 5.1638C32.6549 4.67555 31.9835 4.43142 31.129 4.43142C30.2746 4.43142 29.6032 4.67555 29.1149 5.1638C28.647 5.65206 28.413 6.42513 28.413 7.48302V15.5697C28.413 16.6276 28.647 17.4007 29.1149 17.889C29.6032 18.3772 30.2746 18.6213 31.129 18.6213ZM48.8903 22.0696C50.0499 22.5376 51.352 22.7715 52.7965 22.7715C54.2409 22.7715 55.543 22.5376 56.7027 22.0696C57.8623 21.6017 58.7778 20.8388 59.4492 19.781C60.1409 18.7231 60.4868 17.3193 60.4868 15.5697V1.7155C60.4868 1.2069 60.2325 0.840708 59.7239 0.616925C59.2356 0.393142 58.6964 0.28125 58.1064 0.28125C57.4961 0.28125 56.9468 0.393142 56.4585 0.616925C55.9702 0.840708 55.7261 1.2069 55.7261 1.7155V15.5697C55.7261 16.6073 55.4616 17.3804 54.9327 17.889C54.424 18.3772 53.712 18.6213 52.7965 18.6213C51.8809 18.6213 51.1587 18.3772 50.6297 17.889C50.1211 17.3804 49.8668 16.6073 49.8668 15.5697V1.7155C49.8668 1.2069 49.6125 0.840708 49.1039 0.616925C48.6156 0.393142 48.0765 0.28125 47.4865 0.28125C46.8761 0.28125 46.3268 0.393142 45.8385 0.616925C45.3503 0.840708 45.1061 1.2069 45.1061 1.7155V15.5697C45.1061 17.3193 45.4418 18.7231 46.1132 19.781C46.8049 20.8388 47.7306 21.6017 48.8903 22.0696ZM74.2941 22.7715C72.9717 22.7715 71.751 22.5376 70.6321 22.0696C69.5131 21.6017 68.6179 20.8388 67.9466 19.781C67.2955 18.7231 66.97 17.3193 66.97 15.5697V7.48302C66.97 5.73344 67.2955 4.3297 67.9466 3.27181C68.6179 2.21393 69.5131 1.45103 70.6321 0.983117C71.751 0.515206 72.9717 0.28125 74.2941 0.28125C75.7589 0.28125 77.061 0.525378 78.2003 1.01363C79.36 1.48154 80.2755 2.16307 80.9469 3.0582C81.6182 3.95334 81.9539 5.05191 81.9539 6.35393C81.9539 7.26941 81.7606 7.87972 81.3741 8.18488C80.9875 8.4697 80.3874 8.61211 79.5736 8.61211C78.9429 8.61211 78.3936 8.51039 77.9257 8.30695C77.4781 8.10351 77.2339 7.72715 77.1932 7.17786C77.1932 6.97442 77.1627 6.72012 77.1017 6.41496C77.061 6.1098 76.9593 5.80464 76.7965 5.49948C76.6338 5.19432 76.3693 4.94002 76.0031 4.73658C75.6369 4.53314 75.1283 4.43142 74.4772 4.43142C73.6024 4.43142 72.9208 4.68572 72.4326 5.19432C71.9646 5.68258 71.7307 6.44548 71.7307 7.48302V15.5697C71.7307 16.6073 71.9748 17.3804 72.4631 17.889C72.9514 18.3772 73.6329 18.6213 74.5077 18.6213C75.1181 18.6213 75.5962 18.5196 75.942 18.3162C76.3082 18.1127 76.5727 17.8584 76.7355 17.5533C76.8982 17.2278 77.0101 16.8921 77.0712 16.5463C77.1322 16.2004 77.1729 15.8749 77.1932 15.5697C77.2339 15.0001 77.4781 14.6238 77.9257 14.4407C78.3936 14.2372 78.9327 14.1355 79.5431 14.1355C80.3772 14.1355 80.9875 14.2881 81.3741 14.5932C81.7606 14.8781 81.9539 15.4782 81.9539 16.3937C81.9539 17.7364 81.6182 18.8858 80.9469 19.842C80.2755 20.7982 79.36 21.5305 78.2003 22.0391C77.061 22.5274 75.7589 22.7715 74.2941 22.7715ZM88.5921 22.2222C89.1007 22.4664 89.65 22.5884 90.24 22.5884C90.83 22.5884 91.3692 22.4664 91.8574 22.2222C92.3661 21.9781 92.6204 21.6119 92.6204 21.1237V12.8538H98.6933V21.1237C98.6933 21.6119 98.9374 21.9781 99.4257 22.2222C99.9343 22.4664 100.484 22.5884 101.074 22.5884C101.664 22.5884 102.203 22.4664 102.691 22.2222C103.2 21.9781 103.454 21.6119 103.454 21.1237V1.7155C103.454 1.2069 103.2 0.840708 102.691 0.616925C102.203 0.393142 101.664 0.28125 101.074 0.28125C100.484 0.28125 99.9343 0.393142 99.4257 0.616925C98.9374 0.840708 98.6933 1.2069 98.6933 1.7155V9.19191H92.6204V1.7155C92.6204 1.2069 92.3661 0.840708 91.8574 0.616925C91.3692 0.393142 90.83 0.28125 90.24 0.28125C89.65 0.28125 89.1007 0.393142 88.5921 0.616925C88.1038 0.840708 87.8597 1.2069 87.8597 1.7155V21.1237C87.8597 21.6119 88.1038 21.9781 88.5921 22.2222Z" fill="#0D335D"/>
<g id="Group 85">
<path id="Union" fill-rule="evenodd" clip-rule="evenodd" d="M2.3966 1.0668C1.63946 1.36689 1.424 1.49154 1.13672 1.80506C0.662119 2.32879 0.473426 3.05536 0.647044 3.69659C0.728544 3.98644 3.62399 11.0731 3.73418 11.242C4.01217 11.6765 4.46032 11.9965 4.96371 12.1283C5.1822 12.1822 5.29849 12.1938 5.572 12.1701L5.03956 10.7285C4.93956 10.6728 4.85288 10.6025 4.79546 10.5244C4.65532 10.332 1.88683 3.52916 1.88033 3.35596C1.87057 3.09615 1.95022 2.89456 2.13801 2.69672C2.29401 2.53738 2.40366 2.47085 2.75566 2.33223C3.21809 2.14771 3.37506 2.12463 3.62667 2.18847C3.85309 2.2451 4.10598 2.45345 4.20097 2.66014C4.38235 3.06561 6.95992 9.43035 6.9936 9.55286C7.02302 9.6645 7.01492 9.79674 6.9755 9.92846L7.52947 11.4283C7.59492 11.3732 7.65792 11.3114 7.72972 11.2362C8.17731 10.7673 8.3846 10.0937 8.27044 9.48714C8.20859 9.16755 5.36907 2.13223 5.15638 1.77764C5.09429 1.67284 4.92097 1.48182 4.779 1.35144C4.34527 0.973031 3.87798 0.806675 3.30568 0.830573C3.01123 0.842869 2.89604 0.872462 2.3966 1.0668ZM10.8782 22.9328C11.3965 22.7273 11.571 22.3831 11.7217 22.0858C11.7911 21.9489 11.8554 21.8219 11.946 21.723C12.0169 21.6448 12.0857 21.5726 12.1508 21.5042L12.151 21.5041C12.522 21.1144 12.7754 20.8484 12.6277 20.303C12.5462 20.0131 9.65079 12.9264 9.5406 12.7576C9.2626 12.3231 8.81445 12.0031 8.31107 11.8713C8.09285 11.8174 7.97657 11.8058 7.7038 11.8294L8.23654 13.2718C8.33599 13.3274 8.42215 13.3974 8.47931 13.4751C8.61946 13.6676 11.3879 20.4704 11.3944 20.6436C11.4042 20.9034 11.3246 21.105 11.1368 21.3029C10.9808 21.4622 10.8711 21.5287 10.5191 21.6673C10.0567 21.8519 9.89972 21.8749 9.64811 21.8111C9.42168 21.7545 9.16879 21.5461 9.0738 21.3394C8.89243 20.934 6.31485 14.5692 6.28118 14.4467C6.25164 14.3346 6.25993 14.2018 6.29975 14.0695L5.74611 12.5706C5.68037 12.6259 5.61715 12.6879 5.54506 12.7633C5.09747 13.2322 4.89017 13.9059 5.00434 14.5124C5.06619 14.832 7.90571 21.8673 8.1184 22.2219C8.18049 22.3267 8.35381 22.5178 8.49577 22.6481C8.9295 23.0265 9.3968 23.1929 9.9691 23.169C10.2635 23.1567 10.3787 23.1271 10.8782 22.9328Z" fill="#1A508B"/>
<path id="Union_2" fill-rule="evenodd" clip-rule="evenodd" d="M18.6635 3.32479L18.0467 5.10887C18.0395 5.12974 18.032 5.1504 18.0241 5.17086L16.7406 8.86699C16.731 8.90015 16.7206 8.93323 16.7091 8.96621L16.0918 10.7491C16.0878 10.7607 16.0837 10.7722 16.0794 10.7837L14.8383 14.4156C14.8224 14.4849 14.8027 14.554 14.7789 14.6226L14.161 16.4073C14.1484 16.4435 14.1349 16.4791 14.1205 16.514L12.2038 22.0757L12.1954 22.0772C11.8264 23.0853 10.7136 23.6148 9.69597 23.2598L9.28095 23.115C8.25219 22.756 7.70578 21.6273 8.06229 20.5977L8.06226 20.6007L8.67903 18.8166C8.69108 18.7818 8.70402 18.7475 8.71781 18.7138L10.5015 13.5493L11.8896 9.5006C11.9051 9.43443 11.9241 9.36844 11.9469 9.30286L12.5648 7.5182C12.5801 7.47415 12.5967 7.43098 12.6147 7.38874L13.8601 3.7981C13.8721 3.75339 13.8858 3.70879 13.9012 3.66439L14.5186 1.88149C14.8751 0.851887 16.001 0.306766 17.0298 0.665719L17.4448 0.810528C18.4736 1.16948 19.02 2.29813 18.6635 3.32774L18.6635 3.32479Z" fill="#0D335D"/>
<rect id="Rectangle 110" x="4.19092" y="7.48438" width="1.6647" height="10.1007" rx="0.83235" transform="rotate(-20.2716 4.19092 7.48438)" fill="#13C2C2"/>
</g>
</g>
</svg>
